<svg version="1.0" id="Layer_1" xmlns="http://www.w3.org/2000/svg" xmlns:xlink="http://www.w3.org/1999/xlink" x="0px" y="0px" width="100px" height="100px" viewBox="0 0 100 100" enable-background="new 0 0 100 100" xml:space="preserve">
<path d="M50,10c-18.401,0-33.333,14.916-33.333,33.334c0,9.199,3.73,17.531,9.766,23.566L50,90l23.574-23.105
	c6.035-6.029,9.766-14.361,9.759-23.568C83.333,24.932,68.411,10,50,10z M68.864,62.174L50,80.664L31.101,62.135
	c-4.994-4.986-7.768-11.682-7.768-18.801c0-14.705,11.963-26.667,26.667-26.667c7.122,0,13.821,2.777,18.857,7.813
	c5.036,5.039,7.81,11.732,7.81,18.847C76.673,50.453,73.899,57.143,68.864,62.174z" id="id_103" style="fill: rgb(182, 225, 165);"></path>
<polygon points="50,56.666 65,41.67 60.286,36.957 50,47.24 43.88,41.123 39.167,45.836 " id="id_104" style="fill: rgb(182, 225, 167);"></polygon>
</svg>